<svg width="330" height="251" viewBox="0 0 330 251" fill="none" xmlns="http://www.w3.org/2000/svg">
<path d="M17.0522 20.3943H5.97555L10.4936 1.01021H21.716L17.0522 20.3943ZM27.5458 88.4572H0V25.3496H27.5458V36.1348H10.7851V51.438H27.5458V62.2231H10.7851V77.5263H27.5458V88.4572Z" fill="white"/>
<path d="M77.4532 88.4572C60.1096 88.4572 45.9723 74.32 45.9723 56.8305C45.9723 39.4869 60.1096 25.3496 77.4532 25.3496C94.9426 25.3496 109.08 39.4869 109.08 56.8305C109.08 74.32 94.9426 88.4572 77.4532 88.4572ZM77.4532 77.5263C88.9671 77.5263 98.149 68.3444 98.149 56.8305C98.149 45.4624 88.9671 36.1348 77.4532 36.1348C66.0851 36.1348 56.7574 45.4624 56.7574 56.8305C56.7574 68.3444 66.0851 77.5263 77.4532 77.5263Z" fill="white"/>
<path d="M26.3191 250.434H2.16753V109.441H117.377V133.593H26.3191V167.862H63.8519V192.013H26.3191V250.434ZM114.113 250.434C92.5726 250.434 75.2749 233.136 75.2749 211.596V145.016H99.4264V211.596C99.4264 219.755 105.954 226.282 114.113 226.282C121.946 226.282 128.474 219.755 128.474 211.596V109.441H152.951V211.596C152.951 233.136 135.327 250.434 114.113 250.434Z" fill="#FF4B2B"/>
<path d="M219.965 250.434H195.813V133.266H160.891V109.115H254.887V133.266H219.965V250.434Z" fill="#FF4B2B"/>
<path d="M305.665 206.089L301.931 199.743L308.745 179.349L315.325 177.156L319.991 180.656V181.309C319.991 181.636 320.131 181.916 320.131 182.196C320.131 191.389 317.051 199.509 310.938 206.509L305.665 206.089ZM272.158 196.196L265.765 177.389L282.658 165.536L299.551 177.389L293.158 196.196H272.158ZM282.658 219.669C278.551 219.669 274.678 219.016 270.991 217.709L267.771 210.663L270.851 205.529H294.698L297.545 210.663L294.325 217.709C290.638 219.016 286.765 219.669 282.658 219.669ZM254.378 206.509C251.905 203.616 249.758 199.743 247.938 195.029C246.118 190.269 245.185 185.976 245.185 182.196C245.185 181.916 245.325 181.636 245.325 181.309V180.656L249.991 177.156L256.571 179.349L263.385 199.743L259.651 206.089L254.378 206.509ZM277.991 150.883V157.416L259.325 170.343L253.071 168.383L251.111 162.036C253.165 158.863 256.198 155.689 260.211 152.609C264.225 149.529 268.051 147.523 271.691 146.496L277.991 150.883ZM293.625 146.496C297.265 147.523 301.091 149.529 305.105 152.609C309.118 155.689 312.151 158.863 314.205 162.036L312.245 168.383L305.991 170.389L287.325 157.463V150.883L293.625 146.496ZM249.665 149.203C240.658 158.349 235.991 169.363 235.991 182.196C235.991 195.029 240.658 206.043 249.665 215.189C258.671 224.336 269.825 228.863 282.658 228.863C295.491 228.863 306.505 224.196 315.651 215.189C324.798 206.183 329.325 195.029 329.325 182.196C329.325 169.363 324.658 158.349 315.651 149.203C306.645 140.056 295.491 135.529 282.658 135.529C269.825 135.529 258.811 140.196 249.665 149.203Z" fill="#FF4B2B"/>
<path d="M309.481 142.354L327.527 11.5951L243.512 0L237.655 14.8681L185.379 7.65341L174.764 84.5706L240.109 93.589L245.966 78.7209L298.242 85.9356L290.811 139.778L309.481 142.354Z" fill="#FF4B2B"/>
</svg>
